<mxfile host="app.diagrams.net" agent="Mozilla/5.0 (Macintosh; Intel Mac OS X 10_15_7) AppleWebKit/537.36 (KHTML, like Gecko) Chrome/134.0.0.0 Safari/537.36" version="26.2.3">
  <diagram name="Page-1" id="LDwTZcoctXZr6dDeas7G">
    <mxGraphModel dx="2092" dy="715" grid="1" gridSize="10" guides="1" tooltips="1" connect="1" arrows="1" fold="1" page="1" pageScale="1" pageWidth="827" pageHeight="1169" math="0" shadow="0">
      <root>
        <mxCell id="0" />
        <mxCell id="1" parent="0" />
        <mxCell id="ukrMWYRyUX1q8MgAGlLr-2" value="" style="rounded=0;whiteSpace=wrap;html=1;strokeColor=#0066CC;dashed=1;strokeWidth=2;" parent="1" vertex="1">
          <mxGeometry x="-580" y="195" width="180" height="465" as="geometry" />
        </mxCell>
        <mxCell id="ukrMWYRyUX1q8MgAGlLr-4" value="Sources" style="rounded=0;whiteSpace=wrap;html=1;fillColor=#FFFFFF;strokeColor=none;fontStyle=1;fontSize=19;" parent="1" vertex="1">
          <mxGeometry x="-540" y="180" width="100" height="30" as="geometry" />
        </mxCell>
        <mxCell id="eMOk5YqRRjeyV-6nJBuo-45" style="edgeStyle=orthogonalEdgeStyle;rounded=0;orthogonalLoop=1;jettySize=auto;html=1;" parent="1" edge="1">
          <mxGeometry relative="1" as="geometry">
            <Array as="points">
              <mxPoint x="-377" y="349" />
              <mxPoint x="-377" y="410" />
            </Array>
            <mxPoint x="-450.5" y="349" as="sourcePoint" />
            <mxPoint x="-300" y="410" as="targetPoint" />
          </mxGeometry>
        </mxCell>
        <mxCell id="eMOk5YqRRjeyV-6nJBuo-47" style="edgeStyle=orthogonalEdgeStyle;rounded=0;orthogonalLoop=1;jettySize=auto;html=1;entryX=0;entryY=0.5;entryDx=0;entryDy=0;" parent="1" source="eMOk5YqRRjeyV-6nJBuo-1" target="eMOk5YqRRjeyV-6nJBuo-8" edge="1">
          <mxGeometry relative="1" as="geometry" />
        </mxCell>
        <mxCell id="eMOk5YqRRjeyV-6nJBuo-1" value="" style="image;aspect=fixed;html=1;points=[];align=center;fontSize=12;image=img/lib/azure2/general/Folder_Blank.svg;" parent="1" vertex="1">
          <mxGeometry x="-522.5" y="321" width="69" height="56.00000000000001" as="geometry" />
        </mxCell>
        <mxCell id="eMOk5YqRRjeyV-6nJBuo-2" value="CRM" style="rounded=0;whiteSpace=wrap;html=1;strokeColor=none;fontStyle=1" parent="1" vertex="1">
          <mxGeometry x="-522.5" y="378" width="69" height="20" as="geometry" />
        </mxCell>
        <mxCell id="eMOk5YqRRjeyV-6nJBuo-4" value="ERP" style="rounded=0;whiteSpace=wrap;html=1;strokeColor=none;fontStyle=1" parent="1" vertex="1">
          <mxGeometry x="-522.5" y="567" width="69" height="20" as="geometry" />
        </mxCell>
        <mxCell id="eMOk5YqRRjeyV-6nJBuo-5" value="" style="rounded=1;whiteSpace=wrap;html=1;fillColor=none;strokeColor=#CC6600;strokeWidth=2;fontColor=#990000;" parent="1" vertex="1">
          <mxGeometry x="-318" y="220" width="200" height="450" as="geometry" />
        </mxCell>
        <mxCell id="eMOk5YqRRjeyV-6nJBuo-7" value="Bronze Layer" style="rounded=1;whiteSpace=wrap;html=1;fontSize=16;fontStyle=1;fillColor=#ffe6cc;strokeColor=#CC6600;fontColor=#990000;" parent="1" vertex="1">
          <mxGeometry x="-320" y="173" width="200" height="40" as="geometry" />
        </mxCell>
        <mxCell id="xb2r1aB4zLRx1BU-2BZ9-9" style="edgeStyle=orthogonalEdgeStyle;rounded=0;orthogonalLoop=1;jettySize=auto;html=1;entryX=0;entryY=0.5;entryDx=0;entryDy=0;" parent="1" source="eMOk5YqRRjeyV-6nJBuo-8" target="xb2r1aB4zLRx1BU-2BZ9-3" edge="1">
          <mxGeometry relative="1" as="geometry" />
        </mxCell>
        <mxCell id="eMOk5YqRRjeyV-6nJBuo-8" value="&lt;font style=&quot;font-size: 14px; font-weight: normal;&quot;&gt;crm_sales_details&lt;/font&gt;" style="rounded=1;whiteSpace=wrap;html=1;fontSize=16;fontStyle=1;fillColor=#ffe6cc;strokeColor=#CC6600;fontColor=#990000;" parent="1" vertex="1">
          <mxGeometry x="-301" y="270" width="160" height="40" as="geometry" />
        </mxCell>
        <mxCell id="xb2r1aB4zLRx1BU-2BZ9-10" style="edgeStyle=orthogonalEdgeStyle;rounded=0;orthogonalLoop=1;jettySize=auto;html=1;entryX=0;entryY=0.5;entryDx=0;entryDy=0;" parent="1" source="eMOk5YqRRjeyV-6nJBuo-9" target="xb2r1aB4zLRx1BU-2BZ9-4" edge="1">
          <mxGeometry relative="1" as="geometry" />
        </mxCell>
        <mxCell id="eMOk5YqRRjeyV-6nJBuo-9" value="&lt;font style=&quot;font-size: 14px; font-weight: normal;&quot;&gt;crm_cust_info&lt;/font&gt;" style="rounded=1;whiteSpace=wrap;html=1;fontSize=16;fontStyle=1;fillColor=#ffe6cc;strokeColor=#CC6600;fontColor=#990000;" parent="1" vertex="1">
          <mxGeometry x="-301" y="330" width="160" height="40" as="geometry" />
        </mxCell>
        <mxCell id="xb2r1aB4zLRx1BU-2BZ9-11" style="edgeStyle=orthogonalEdgeStyle;rounded=0;orthogonalLoop=1;jettySize=auto;html=1;entryX=0;entryY=0.5;entryDx=0;entryDy=0;" parent="1" source="eMOk5YqRRjeyV-6nJBuo-10" target="xb2r1aB4zLRx1BU-2BZ9-5" edge="1">
          <mxGeometry relative="1" as="geometry" />
        </mxCell>
        <mxCell id="eMOk5YqRRjeyV-6nJBuo-10" value="&lt;font style=&quot;font-size: 14px; font-weight: normal;&quot;&gt;crm_prd_info&lt;/font&gt;" style="rounded=1;whiteSpace=wrap;html=1;fontSize=16;fontStyle=1;fillColor=#ffe6cc;strokeColor=#CC6600;fontColor=#990000;" parent="1" vertex="1">
          <mxGeometry x="-299" y="390" width="160" height="40" as="geometry" />
        </mxCell>
        <mxCell id="VhRcvC1ot_M8HF8U5cCe-3" style="edgeStyle=orthogonalEdgeStyle;rounded=0;orthogonalLoop=1;jettySize=auto;html=1;entryX=0;entryY=0.5;entryDx=0;entryDy=0;" parent="1" edge="1">
          <mxGeometry relative="1" as="geometry">
            <mxPoint x="-454.5" y="540" as="sourcePoint" />
            <mxPoint x="-298" y="600" as="targetPoint" />
            <Array as="points">
              <mxPoint x="-381" y="540" />
              <mxPoint x="-381" y="600" />
            </Array>
          </mxGeometry>
        </mxCell>
        <mxCell id="eMOk5YqRRjeyV-6nJBuo-33" value="" style="image;aspect=fixed;html=1;points=[];align=center;fontSize=12;image=img/lib/azure2/general/Folder_Blank.svg;" parent="1" vertex="1">
          <mxGeometry x="-522.5" y="511" width="69" height="56.00000000000001" as="geometry" />
        </mxCell>
        <mxCell id="eMOk5YqRRjeyV-6nJBuo-38" style="edgeStyle=orthogonalEdgeStyle;rounded=0;orthogonalLoop=1;jettySize=auto;html=1;entryX=0.006;entryY=0.5;entryDx=0;entryDy=0;entryPerimeter=0;" parent="1" edge="1">
          <mxGeometry relative="1" as="geometry">
            <mxPoint x="-440" y="540" as="sourcePoint" />
            <mxPoint x="-300.03999999999996" y="540" as="targetPoint" />
          </mxGeometry>
        </mxCell>
        <mxCell id="eMOk5YqRRjeyV-6nJBuo-39" style="edgeStyle=orthogonalEdgeStyle;rounded=0;orthogonalLoop=1;jettySize=auto;html=1;entryX=0.09;entryY=0.159;entryDx=0;entryDy=0;entryPerimeter=0;" parent="1" source="eMOk5YqRRjeyV-6nJBuo-33" edge="1">
          <mxGeometry relative="1" as="geometry">
            <mxPoint x="-300" y="480" as="targetPoint" />
            <Array as="points">
              <mxPoint x="-381" y="540" />
              <mxPoint x="-381" y="480" />
            </Array>
          </mxGeometry>
        </mxCell>
        <mxCell id="eMOk5YqRRjeyV-6nJBuo-42" value="&lt;font style=&quot;font-size: 14px; font-weight: normal;&quot;&gt;erp_cust_az12&lt;/font&gt;" style="rounded=1;whiteSpace=wrap;html=1;fontSize=16;fontStyle=1;fillColor=#ffe6cc;strokeColor=#CC6600;fontColor=#990000;" parent="1" vertex="1">
          <mxGeometry x="-299" y="459" width="160" height="40" as="geometry" />
        </mxCell>
        <mxCell id="xb2r1aB4zLRx1BU-2BZ9-13" style="edgeStyle=orthogonalEdgeStyle;rounded=0;orthogonalLoop=1;jettySize=auto;html=1;entryX=0;entryY=0.5;entryDx=0;entryDy=0;" parent="1" source="eMOk5YqRRjeyV-6nJBuo-43" target="xb2r1aB4zLRx1BU-2BZ9-7" edge="1">
          <mxGeometry relative="1" as="geometry" />
        </mxCell>
        <mxCell id="eMOk5YqRRjeyV-6nJBuo-43" value="&lt;font style=&quot;font-size: 14px; font-weight: normal;&quot;&gt;erp_loc_a101&lt;/font&gt;" style="rounded=1;whiteSpace=wrap;html=1;fontSize=16;fontStyle=1;fillColor=#ffe6cc;strokeColor=#CC6600;fontColor=#990000;" parent="1" vertex="1">
          <mxGeometry x="-299" y="519" width="160" height="40" as="geometry" />
        </mxCell>
        <mxCell id="eMOk5YqRRjeyV-6nJBuo-44" value="&lt;font style=&quot;font-size: 14px; font-weight: normal;&quot;&gt;erp_px_cat_g1v2&lt;/font&gt;" style="rounded=1;whiteSpace=wrap;html=1;fontSize=16;fontStyle=1;fillColor=#ffe6cc;strokeColor=#CC6600;fontColor=#990000;" parent="1" vertex="1">
          <mxGeometry x="-297" y="579" width="160" height="40" as="geometry" />
        </mxCell>
        <mxCell id="eMOk5YqRRjeyV-6nJBuo-46" value="MYSQL DATA WAREHOUSE PROJECT - DATA FLOW DIAGRAM" style="rounded=1;whiteSpace=wrap;html=1;fontStyle=1;fontSize=18;" parent="1" vertex="1">
          <mxGeometry x="-420" y="70" width="727" height="40" as="geometry" />
        </mxCell>
        <mxCell id="xb2r1aB4zLRx1BU-2BZ9-1" value="" style="rounded=1;whiteSpace=wrap;html=1;fillColor=none;strokeColor=#CCCCCC;strokeWidth=2;fontColor=#990000;" parent="1" vertex="1">
          <mxGeometry x="-18" y="220" width="200" height="450" as="geometry" />
        </mxCell>
        <mxCell id="xb2r1aB4zLRx1BU-2BZ9-2" value="Silver Layer" style="rounded=1;whiteSpace=wrap;html=1;fontSize=16;fontStyle=1;fillColor=#f5f5f5;strokeColor=#CCCCCC;fontColor=#333333;" parent="1" vertex="1">
          <mxGeometry x="-20" y="173" width="200" height="40" as="geometry" />
        </mxCell>
        <mxCell id="xb2r1aB4zLRx1BU-2BZ9-3" value="&lt;font style=&quot;font-size: 14px; font-weight: normal;&quot;&gt;crm_sales_details&lt;/font&gt;" style="rounded=1;whiteSpace=wrap;html=1;fontSize=16;fontStyle=1;fillColor=#f5f5f5;strokeColor=#666666;fontColor=#333333;" parent="1" vertex="1">
          <mxGeometry x="-1" y="270" width="160" height="40" as="geometry" />
        </mxCell>
        <mxCell id="xb2r1aB4zLRx1BU-2BZ9-4" value="&lt;font style=&quot;font-size: 14px; font-weight: normal;&quot;&gt;crm_cust_info&lt;/font&gt;" style="rounded=1;whiteSpace=wrap;html=1;fontSize=16;fontStyle=1;fillColor=#f5f5f5;strokeColor=#666666;fontColor=#333333;" parent="1" vertex="1">
          <mxGeometry x="-1" y="330" width="160" height="40" as="geometry" />
        </mxCell>
        <mxCell id="xb2r1aB4zLRx1BU-2BZ9-5" value="&lt;font style=&quot;font-size: 14px; font-weight: normal;&quot;&gt;crm_prd_info&lt;/font&gt;" style="rounded=1;whiteSpace=wrap;html=1;fontSize=16;fontStyle=1;fillColor=#f5f5f5;strokeColor=#666666;fontColor=#333333;" parent="1" vertex="1">
          <mxGeometry x="1" y="390" width="160" height="40" as="geometry" />
        </mxCell>
        <mxCell id="xb2r1aB4zLRx1BU-2BZ9-6" value="&lt;font style=&quot;font-size: 14px; font-weight: normal;&quot;&gt;erp_cust_az12&lt;/font&gt;" style="rounded=1;whiteSpace=wrap;html=1;fontSize=16;fontStyle=1;fillColor=#f5f5f5;strokeColor=#666666;fontColor=#333333;" parent="1" vertex="1">
          <mxGeometry x="1" y="459" width="160" height="40" as="geometry" />
        </mxCell>
        <mxCell id="xb2r1aB4zLRx1BU-2BZ9-7" value="&lt;font style=&quot;font-size: 14px; font-weight: normal;&quot;&gt;erp_loc_a101&lt;/font&gt;" style="rounded=1;whiteSpace=wrap;html=1;fontSize=16;fontStyle=1;fillColor=#f5f5f5;strokeColor=#666666;fontColor=#333333;" parent="1" vertex="1">
          <mxGeometry x="1" y="519" width="160" height="40" as="geometry" />
        </mxCell>
        <mxCell id="xb2r1aB4zLRx1BU-2BZ9-8" value="&lt;font style=&quot;font-size: 14px; font-weight: normal;&quot;&gt;erp_px_cat_g1v2&lt;/font&gt;" style="rounded=1;whiteSpace=wrap;html=1;fontSize=16;fontStyle=1;fillColor=#f5f5f5;strokeColor=#666666;fontColor=#333333;" parent="1" vertex="1">
          <mxGeometry x="3" y="579" width="160" height="40" as="geometry" />
        </mxCell>
        <mxCell id="xb2r1aB4zLRx1BU-2BZ9-12" style="edgeStyle=orthogonalEdgeStyle;rounded=0;orthogonalLoop=1;jettySize=auto;html=1;entryX=0.09;entryY=0.576;entryDx=0;entryDy=0;entryPerimeter=0;" parent="1" source="eMOk5YqRRjeyV-6nJBuo-42" target="xb2r1aB4zLRx1BU-2BZ9-1" edge="1">
          <mxGeometry relative="1" as="geometry" />
        </mxCell>
        <mxCell id="xb2r1aB4zLRx1BU-2BZ9-14" style="edgeStyle=orthogonalEdgeStyle;rounded=0;orthogonalLoop=1;jettySize=auto;html=1;entryX=0.09;entryY=0.842;entryDx=0;entryDy=0;entryPerimeter=0;" parent="1" source="eMOk5YqRRjeyV-6nJBuo-44" target="xb2r1aB4zLRx1BU-2BZ9-1" edge="1">
          <mxGeometry relative="1" as="geometry" />
        </mxCell>
        <mxCell id="VhRcvC1ot_M8HF8U5cCe-2" style="edgeStyle=orthogonalEdgeStyle;rounded=0;orthogonalLoop=1;jettySize=auto;html=1;entryX=0.09;entryY=0.287;entryDx=0;entryDy=0;entryPerimeter=0;" parent="1" source="eMOk5YqRRjeyV-6nJBuo-1" target="eMOk5YqRRjeyV-6nJBuo-5" edge="1">
          <mxGeometry relative="1" as="geometry" />
        </mxCell>
        <mxCell id="L6veInA4-nis39JjfZF9-1" value="" style="rounded=1;whiteSpace=wrap;html=1;fillColor=none;strokeColor=#d6b656;strokeWidth=2;" vertex="1" parent="1">
          <mxGeometry x="309" y="220" width="200" height="450" as="geometry" />
        </mxCell>
        <mxCell id="L6veInA4-nis39JjfZF9-2" value="Gold Layer" style="rounded=1;whiteSpace=wrap;html=1;fontSize=16;fontStyle=1;fillColor=#fff2cc;strokeColor=#d6b656;" vertex="1" parent="1">
          <mxGeometry x="307" y="173" width="200" height="40" as="geometry" />
        </mxCell>
        <mxCell id="L6veInA4-nis39JjfZF9-3" value="&lt;font style=&quot;font-size: 14px; font-weight: normal;&quot;&gt;fact_sales&lt;/font&gt;" style="rounded=1;whiteSpace=wrap;html=1;fontSize=16;fontStyle=1;fillColor=#fff2cc;strokeColor=#d6b656;" vertex="1" parent="1">
          <mxGeometry x="329" y="270" width="160" height="40" as="geometry" />
        </mxCell>
        <mxCell id="L6veInA4-nis39JjfZF9-4" value="&lt;font style=&quot;font-size: 14px; font-weight: normal;&quot;&gt;dim_customers&lt;/font&gt;" style="rounded=1;whiteSpace=wrap;html=1;fontSize=16;fontStyle=1;fillColor=#fff2cc;strokeColor=#d6b656;" vertex="1" parent="1">
          <mxGeometry x="334" y="390" width="160" height="40" as="geometry" />
        </mxCell>
        <mxCell id="L6veInA4-nis39JjfZF9-5" value="&lt;font style=&quot;font-size: 14px; font-weight: normal;&quot;&gt;dim_products&lt;/font&gt;" style="rounded=1;whiteSpace=wrap;html=1;fontSize=16;fontStyle=1;fillColor=#fff2cc;strokeColor=#d6b656;" vertex="1" parent="1">
          <mxGeometry x="329" y="519" width="160" height="40" as="geometry" />
        </mxCell>
        <mxCell id="L6veInA4-nis39JjfZF9-9" value="" style="endArrow=classic;html=1;rounded=0;entryX=0;entryY=0.5;entryDx=0;entryDy=0;" edge="1" parent="1" target="L6veInA4-nis39JjfZF9-3">
          <mxGeometry width="50" height="50" relative="1" as="geometry">
            <mxPoint x="160" y="290" as="sourcePoint" />
            <mxPoint x="290" y="450" as="targetPoint" />
          </mxGeometry>
        </mxCell>
        <mxCell id="L6veInA4-nis39JjfZF9-10" value="" style="endArrow=classic;html=1;rounded=0;exitX=1;exitY=0.5;exitDx=0;exitDy=0;entryX=0;entryY=0.5;entryDx=0;entryDy=0;jumpStyle=gap;" edge="1" parent="1" source="xb2r1aB4zLRx1BU-2BZ9-6" target="L6veInA4-nis39JjfZF9-4">
          <mxGeometry width="50" height="50" relative="1" as="geometry">
            <mxPoint x="160" y="530" as="sourcePoint" />
            <mxPoint x="210" y="480" as="targetPoint" />
          </mxGeometry>
        </mxCell>
        <mxCell id="L6veInA4-nis39JjfZF9-11" value="" style="endArrow=classic;html=1;rounded=0;exitX=1;exitY=0.5;exitDx=0;exitDy=0;entryX=0;entryY=0.5;entryDx=0;entryDy=0;jumpStyle=gap;" edge="1" parent="1" source="xb2r1aB4zLRx1BU-2BZ9-4" target="L6veInA4-nis39JjfZF9-4">
          <mxGeometry width="50" height="50" relative="1" as="geometry">
            <mxPoint x="160" y="530" as="sourcePoint" />
            <mxPoint x="210" y="480" as="targetPoint" />
          </mxGeometry>
        </mxCell>
        <mxCell id="L6veInA4-nis39JjfZF9-12" value="" style="endArrow=classic;html=1;rounded=0;jumpStyle=gap;" edge="1" parent="1">
          <mxGeometry width="50" height="50" relative="1" as="geometry">
            <mxPoint x="163" y="540" as="sourcePoint" />
            <mxPoint x="330" y="410" as="targetPoint" />
          </mxGeometry>
        </mxCell>
        <mxCell id="L6veInA4-nis39JjfZF9-13" value="" style="endArrow=classic;html=1;rounded=0;exitX=0.89;exitY=0.422;exitDx=0;exitDy=0;exitPerimeter=0;entryX=0;entryY=0.5;entryDx=0;entryDy=0;jumpStyle=gap;" edge="1" parent="1" source="xb2r1aB4zLRx1BU-2BZ9-1" target="L6veInA4-nis39JjfZF9-5">
          <mxGeometry width="50" height="50" relative="1" as="geometry">
            <mxPoint x="240" y="530" as="sourcePoint" />
            <mxPoint x="290" y="480" as="targetPoint" />
          </mxGeometry>
        </mxCell>
        <mxCell id="L6veInA4-nis39JjfZF9-14" value="" style="endArrow=classic;html=1;rounded=0;exitX=1;exitY=0.5;exitDx=0;exitDy=0;jumpStyle=gap;" edge="1" parent="1" source="xb2r1aB4zLRx1BU-2BZ9-8">
          <mxGeometry width="50" height="50" relative="1" as="geometry">
            <mxPoint x="240" y="530" as="sourcePoint" />
            <mxPoint x="330" y="540" as="targetPoint" />
          </mxGeometry>
        </mxCell>
      </root>
    </mxGraphModel>
  </diagram>
</mxfile>
